<mxfile host="app.diagrams.net" modified="2023-03-15T03:01:05.100Z" agent="5.0 (Windows NT 10.0; Win64; x64) AppleWebKit/537.36 (KHTML, like Gecko) Chrome/111.0.0.0 Safari/537.36" etag="gZ5TWApHjk80G5xgxRxP" version="20.8.20" type="github">
  <diagram name="Page-1" id="2YBvvXClWsGukQMizWep">
    <mxGraphModel dx="407" dy="429" grid="1" gridSize="10" guides="1" tooltips="1" connect="1" arrows="1" fold="1" page="1" pageScale="1" pageWidth="850" pageHeight="1100" math="0" shadow="0">
      <root>
        <mxCell id="0" />
        <mxCell id="1" parent="0" />
        <mxCell id="aM9ryv3xv72pqoxQDRHE-1" value="Player" style="shape=umlLifeline;perimeter=lifelinePerimeter;whiteSpace=wrap;html=1;container=0;dropTarget=0;collapsible=0;recursiveResize=0;outlineConnect=0;portConstraint=eastwest;newEdgeStyle={&quot;edgeStyle&quot;:&quot;elbowEdgeStyle&quot;,&quot;elbow&quot;:&quot;vertical&quot;,&quot;curved&quot;:0,&quot;rounded&quot;:0};" parent="1" vertex="1">
          <mxGeometry x="40" y="360" width="100" height="395" as="geometry" />
        </mxCell>
        <mxCell id="aM9ryv3xv72pqoxQDRHE-5" value="UI" style="shape=umlLifeline;perimeter=lifelinePerimeter;whiteSpace=wrap;html=1;container=0;dropTarget=0;collapsible=0;recursiveResize=0;outlineConnect=0;portConstraint=eastwest;newEdgeStyle={&quot;edgeStyle&quot;:&quot;elbowEdgeStyle&quot;,&quot;elbow&quot;:&quot;vertical&quot;,&quot;curved&quot;:0,&quot;rounded&quot;:0};" parent="1" vertex="1">
          <mxGeometry x="325" y="360" width="100" height="405" as="geometry" />
        </mxCell>
        <mxCell id="aM9ryv3xv72pqoxQDRHE-7" value="1. Select new game" style="html=1;verticalAlign=bottom;endArrow=block;edgeStyle=elbowEdgeStyle;elbow=vertical;curved=0;rounded=0;" parent="1" source="aM9ryv3xv72pqoxQDRHE-1" edge="1">
          <mxGeometry x="-0.0019" relative="1" as="geometry">
            <mxPoint x="95" y="485" as="sourcePoint" />
            <Array as="points">
              <mxPoint x="335" y="485" />
            </Array>
            <mxPoint x="370.0000000000001" y="484.9999999999999" as="targetPoint" />
            <mxPoint as="offset" />
          </mxGeometry>
        </mxCell>
        <mxCell id="xq8QzK1p6WDyC5gtRboi-2" value="Game" style="shape=umlLifeline;perimeter=lifelinePerimeter;whiteSpace=wrap;html=1;container=0;dropTarget=0;collapsible=0;recursiveResize=0;outlineConnect=0;portConstraint=eastwest;newEdgeStyle={&quot;edgeStyle&quot;:&quot;elbowEdgeStyle&quot;,&quot;elbow&quot;:&quot;vertical&quot;,&quot;curved&quot;:0,&quot;rounded&quot;:0};" vertex="1" parent="1">
          <mxGeometry x="550" y="360" width="100" height="405" as="geometry" />
        </mxCell>
        <mxCell id="xq8QzK1p6WDyC5gtRboi-3" value="Hangman" style="shape=umlLifeline;perimeter=lifelinePerimeter;whiteSpace=wrap;html=1;container=0;dropTarget=0;collapsible=0;recursiveResize=0;outlineConnect=0;portConstraint=eastwest;newEdgeStyle={&quot;edgeStyle&quot;:&quot;elbowEdgeStyle&quot;,&quot;elbow&quot;:&quot;vertical&quot;,&quot;curved&quot;:0,&quot;rounded&quot;:0};" vertex="1" parent="1">
          <mxGeometry x="710" y="360" width="100" height="405" as="geometry" />
        </mxCell>
        <mxCell id="xq8QzK1p6WDyC5gtRboi-4" value="" style="endArrow=classic;html=1;rounded=0;" edge="1" parent="1" source="aM9ryv3xv72pqoxQDRHE-5" target="xq8QzK1p6WDyC5gtRboi-2">
          <mxGeometry width="50" height="50" relative="1" as="geometry">
            <mxPoint x="390" y="610" as="sourcePoint" />
            <mxPoint x="440" y="560" as="targetPoint" />
            <Array as="points">
              <mxPoint x="410" y="500" />
            </Array>
          </mxGeometry>
        </mxCell>
        <mxCell id="xq8QzK1p6WDyC5gtRboi-5" value="2. Request new game" style="text;html=1;align=center;verticalAlign=middle;resizable=0;points=[];autosize=1;strokeColor=none;fillColor=none;" vertex="1" parent="1">
          <mxGeometry x="370" y="475" width="140" height="30" as="geometry" />
        </mxCell>
        <mxCell id="xq8QzK1p6WDyC5gtRboi-15" value="&lt;font style=&quot;font-size: 12px;&quot;&gt;3. Generate random words&lt;/font&gt;" style="text;html=1;align=center;verticalAlign=middle;resizable=0;points=[];autosize=1;strokeColor=none;fillColor=none;" vertex="1" parent="1">
          <mxGeometry x="425" y="555" width="170" height="30" as="geometry" />
        </mxCell>
        <mxCell id="xq8QzK1p6WDyC5gtRboi-16" value="" style="group" vertex="1" connectable="0" parent="1">
          <mxGeometry x="590" y="520" width="80" height="100" as="geometry" />
        </mxCell>
        <mxCell id="xq8QzK1p6WDyC5gtRboi-8" value="" style="rounded=1;whiteSpace=wrap;html=1;rotation=90;" vertex="1" parent="xq8QzK1p6WDyC5gtRboi-16">
          <mxGeometry x="-10" y="10" width="40" height="20" as="geometry" />
        </mxCell>
        <mxCell id="xq8QzK1p6WDyC5gtRboi-9" value="" style="rounded=1;whiteSpace=wrap;html=1;rotation=90;" vertex="1" parent="xq8QzK1p6WDyC5gtRboi-16">
          <mxGeometry x="-10" y="70" width="40" height="20" as="geometry" />
        </mxCell>
        <mxCell id="xq8QzK1p6WDyC5gtRboi-14" value="" style="curved=1;endArrow=classic;html=1;rounded=0;exitX=0.25;exitY=0;exitDx=0;exitDy=0;entryX=0.508;entryY=-0.128;entryDx=0;entryDy=0;entryPerimeter=0;" edge="1" parent="xq8QzK1p6WDyC5gtRboi-16" source="xq8QzK1p6WDyC5gtRboi-8" target="xq8QzK1p6WDyC5gtRboi-9">
          <mxGeometry width="50" height="50" relative="1" as="geometry">
            <mxPoint x="40" y="40" as="sourcePoint" />
            <mxPoint x="80" y="80" as="targetPoint" />
            <Array as="points">
              <mxPoint x="80" y="10" />
              <mxPoint x="80" y="80" />
            </Array>
          </mxGeometry>
        </mxCell>
        <mxCell id="xq8QzK1p6WDyC5gtRboi-17" value="" style="endArrow=classic;html=1;rounded=0;fontSize=12;" edge="1" parent="1" source="xq8QzK1p6WDyC5gtRboi-2" target="xq8QzK1p6WDyC5gtRboi-3">
          <mxGeometry width="50" height="50" relative="1" as="geometry">
            <mxPoint x="630" y="680" as="sourcePoint" />
            <mxPoint x="680" y="630" as="targetPoint" />
            <Array as="points">
              <mxPoint x="710" y="660" />
            </Array>
          </mxGeometry>
        </mxCell>
      </root>
    </mxGraphModel>
  </diagram>
</mxfile>
